<?xml version="1.0" standalone="no"?>
<!DOCTYPE svg PUBLIC "-//W3C//DTD SVG 20010904//EN"
 "http://www.w3.org/TR/2001/REC-SVG-20010904/DTD/svg10.dtd">
<svg version="1.0" xmlns="http://www.w3.org/2000/svg"
 width="256.000000pt" height="256.000000pt" viewBox="0 0 256.000000 256.000000"
 preserveAspectRatio="xMidYMid meet">
<metadata>
Created by potrace 1.14, written by Peter Selinger 2001-2017
</metadata>
<g transform="translate(0.000000,256.000000) scale(0.100000,-0.100000)"
fill="#000000" stroke="none">
<path d="M0 1280 l0 -1280 1280 0 1280 0 0 1280 0 1280 -1280 0 -1280 0 0
-1280z m1479 875 c152 -48 292 -165 366 -306 39 -74 75 -200 75 -260 l0 -38
-91 -3 -92 -3 -30 -82 -30 -83 -51 0 c-48 0 -57 4 -111 50 l-59 50 3 55 c2 45
-3 64 -23 99 -66 113 -245 114 -311 2 -71 -120 14 -266 155 -266 47 0 88 15
117 42 26 24 17 28 110 -54 l43 -38 165 0 c91 0 165 -2 165 -5 0 -14 -47 -96
-87 -152 -78 -111 -213 -202 -354 -240 -95 -25 -235 -22 -329 6 -68 21 -190
76 -190 85 0 2 40 29 89 60 l88 56 122 0 c108 0 123 -2 141 -20 43 -43 120
-11 120 48 0 59 -84 89 -121 44 -16 -21 -26 -22 -151 -22 l-133 0 -98 -65
c-113 -76 -111 -77 -186 17 -101 125 -151 261 -151 413 0 191 95 392 234 499
l36 27 0 -163 0 -163 -33 -23 c-25 -16 -42 -21 -65 -16 -25 5 -36 1 -56 -19
-32 -32 -33 -63 -4 -94 41 -44 118 -17 118 41 0 18 12 32 44 52 l44 28 7 198
8 199 28 14 c15 8 30 15 34 15 3 0 5 -39 5 -87 -1 -62 -5 -94 -15 -107 -31
-41 -6 -96 43 -96 55 0 82 63 42 97 -17 15 -20 30 -20 115 l0 97 38 10 c104
27 236 22 351 -14z m-155 -519 c109 -46 76 -196 -44 -196 -63 0 -109 43 -110
100 0 44 23 78 64 96 40 17 49 17 90 0z m592 -183 c-14 -76 -10 -73 -93 -73
l-75 0 5 28 c16 78 20 82 98 82 l71 0 -6 -37z m-1188 -741 c3 -9 -3 -13 -14
-12 -38 4 -45 0 -42 -22 2 -17 10 -23 30 -23 38 0 45 -12 15 -26 -22 -10 -31
-9 -52 5 -30 20 -35 69 -7 85 22 14 64 10 70 -7z m112 3 c7 -8 9 -23 4 -37 -4
-13 -7 -31 -5 -40 3 -22 -12 -23 -29 -3 -16 20 -30 19 -30 -1 0 -9 -6 -14 -12
-12 -8 3 -14 26 -16 56 l-3 52 39 0 c22 0 45 -6 52 -15z m52 -7 l15 -22 12 22
c6 12 19 22 27 22 13 0 12 -6 -5 -34 -12 -18 -21 -43 -21 -55 0 -12 -6 -21
-15 -21 -9 0 -15 9 -15 21 0 12 -9 37 -21 55 -16 27 -18 34 -6 34 8 0 21 -10
29 -22z m162 0 c13 -22 -2 -51 -30 -57 -10 -2 -23 -9 -27 -17 -16 -29 -27 -12
-27 42 l0 55 36 -3 c22 -2 42 -10 48 -20z m106 12 c0 -5 -6 -10 -14 -10 -10 0
-16 -13 -18 -42 -4 -57 -28 -64 -28 -8 0 33 -4 43 -20 47 -37 10 -20 23 30 23
28 0 50 -4 50 -10z m102 -7 c25 -23 23 -59 -6 -78 -54 -35 -116 18 -82 70 19
29 60 34 88 8z m108 1 c0 -11 -5 -14 -16 -10 -31 12 -36 -7 -5 -20 17 -7 31
-20 31 -28 0 -21 -37 -39 -66 -32 -35 9 -29 26 9 27 l32 1 -32 14 c-35 15 -41
32 -21 52 18 18 68 15 68 -4z m110 1 c19 -23 7 -49 -28 -60 -17 -5 -32 -15
-32 -23 0 -7 -6 -12 -12 -10 -8 3 -14 26 -16 56 l-3 52 39 0 c22 0 45 -6 52
-15z m50 -5 c0 -13 7 -20 20 -20 13 0 20 7 20 20 0 11 7 20 15 20 12 0 15 -13
15 -55 0 -55 -16 -76 -27 -35 -7 27 -43 27 -43 -1 0 -12 -5 -19 -12 -17 -8 3
-14 26 -16 56 -2 42 0 52 12 52 9 0 16 -9 16 -20z m180 10 c0 -5 -11 -10 -24
-10 -14 0 -28 -4 -31 -10 -4 -6 5 -10 19 -10 14 0 26 -4 26 -10 0 -5 -9 -10
-19 -10 -11 0 -23 -4 -26 -10 -4 -6 7 -10 24 -10 21 0 31 -5 31 -16 0 -12 -9
-14 -42 -12 l-43 3 -3 53 -3 52 45 0 c26 0 46 -4 46 -10z m104 -12 c8 -13 8
-23 -1 -38 -8 -12 -9 -21 -3 -25 15 -9 12 -25 -5 -25 -7 0 -19 8 -25 18 -10
16 -10 16 -20 0 -20 -32 -30 -19 -30 38 l0 55 36 -3 c22 -2 42 -10 48 -20z
m106 12 c0 -5 -11 -10 -25 -10 -14 0 -25 -4 -25 -10 0 -5 9 -10 19 -10 11 0
23 -4 26 -10 4 -6 -5 -10 -19 -10 -14 0 -26 -4 -26 -10 0 -5 11 -10 25 -10 16
0 25 -6 25 -15 0 -11 -11 -15 -40 -15 l-40 0 0 55 0 55 40 0 c22 0 40 -4 40
-10z m-1105 -210 c-3 -5 0 -10 7 -11 10 0 10 -2 1 -6 -7 -2 -14 -17 -14 -31
-1 -27 -1 -27 -8 3 -4 17 -3 36 2 43 11 14 21 16 12 2z m58 -31 c-4 -12 0 -25
8 -31 12 -8 12 -9 0 -6 -15 4 -33 52 -24 62 11 11 21 -5 16 -25z m-206 14 c-9
-2 -15 -9 -12 -14 4 -5 1 -9 -4 -9 -6 0 -11 7 -11 15 0 9 9 15 23 14 17 -1 18
-2 4 -6z m101 -20 c3 -22 -28 -40 -48 -28 -12 7 -13 38 -3 49 15 14 48 1 51
-21z m222 -28 c0 -5 -9 1 -20 15 -11 14 -20 30 -20 35 0 6 9 -1 20 -15 11 -14
20 -29 20 -35z m88 20 c4 -33 -4 -33 -10 0 -1 11 -12 23 -23 27 -17 6 -16 7 5
5 20 -2 26 -8 28 -32z m66 27 c-7 -4 -14 -16 -17 -27 -4 -15 -5 -14 -6 8 -1
20 4 27 17 27 11 0 13 -3 6 -8z m81 -3 c4 -6 4 -13 0 -17 -4 -4 -10 -1 -12 6
-6 17 -20 15 -27 -3 -4 -10 2 -19 17 -25 15 -6 17 -9 6 -9 -22 -1 -41 23 -33
43 7 18 39 22 49 5z m108 1 c-13 -5 -23 -14 -23 -20 0 -6 10 -15 23 -20 15 -6
17 -9 6 -9 -9 -1 -22 6 -29 14 -15 18 3 45 29 44 11 0 9 -3 -6 -9z m105 -18
c4 -28 -24 -40 -45 -19 -21 21 -9 49 19 45 15 -2 24 -11 26 -26z m128 -7 c2
-29 2 -29 -3 -2 -5 33 -33 37 -34 5 l0 -23 -10 23 c-11 29 -31 24 -40 -9 -6
-21 -7 -21 -8 9 l-1 32 48 -2 c45 -3 47 -4 48 -33z m94 20 c10 -12 10 -18 0
-30 -7 -8 -18 -15 -25 -15 -8 0 -16 -6 -18 -12 -3 -7 -6 6 -6 30 -1 35 2 42
18 42 10 0 24 -7 31 -15z m80 -15 c0 -23 -5 -30 -19 -30 -24 0 -36 16 -20 26
8 4 9 3 5 -4 -4 -7 -1 -12 8 -12 22 0 20 37 -1 43 -14 4 -12 5 5 6 18 1 22 -4
22 -29z m94 14 c3 -9 6 -21 5 -27 0 -7 -4 -1 -10 11 -11 29 -31 24 -40 -9 -6
-21 -7 -21 -8 9 -1 27 2 32 23 32 13 0 27 -7 30 -16z m71 -5 c4 12 9 20 11 18
10 -9 -30 -77 -45 -77 -13 1 -13 2 1 11 17 9 17 12 2 42 l-15 32 19 -24 20
-24 7 22z m-964 -13 c5 3 9 1 9 -5 0 -5 -4 -13 -10 -16 -5 -3 -10 -4 -10 -1 0
2 -2 10 -3 18 -2 7 -2 10 0 5 3 -4 9 -5 14 -1z m-261 -11 c0 -9 -9 -15 -22
-14 -17 1 -19 2 -5 6 9 2 17 9 17 14 0 5 2 9 5 9 3 0 5 -7 5 -15z m375 -14
c-6 -5 -25 10 -25 20 0 5 6 4 14 -3 8 -7 12 -15 11 -17z"/>
<path d="M787 704 c-13 -13 -7 -24 14 -24 11 0 19 5 17 12 -5 14 -22 21 -31
12z"/>
<path d="M1000 696 c0 -9 7 -16 16 -16 17 0 14 22 -4 28 -7 2 -12 -3 -12 -12z"/>
<path d="M1207 697 c-22 -16 -13 -47 14 -47 25 0 36 28 17 46 -11 12 -17 12
-31 1z"/>
<path d="M1427 704 c-13 -13 -7 -24 14 -24 11 0 19 5 17 12 -5 14 -22 21 -31
12z"/>
<path d="M1760 696 c0 -9 7 -16 16 -16 9 0 14 5 12 12 -6 18 -28 21 -28 4z"/>
<path d="M724 479 c-10 -17 13 -36 27 -22 12 12 4 33 -11 33 -5 0 -12 -5 -16
-11z"/>
<path d="M1394 479 c-8 -14 11 -33 25 -25 16 10 13 36 -3 36 -8 0 -18 -5 -22
-11z"/>
<path d="M1620 470 c0 -15 5 -20 18 -18 9 2 17 10 17 18 0 8 -8 16 -17 18 -13
2 -18 -3 -18 -18z"/>
</g>
</svg>
